{"asset":{"version":"2.0","generator":"VECTARY"},"nodes":[{"translation":[-0.008,-0.010710197666416349,0.006687186308434198],"scale":[0.001,0.001,0.001],"rotation":[-0.7071067811865475,0,0,0.7071067811865476],"name":"Group","children":[1,2,3,4,5,6,7,8,9,10,11]},{"translation":[-133.40819277432152,6.687186308434198,10.710197666416347],"scale":[0.8916248411245599,0.8916248411245599,0.8916248411245599],"rotation":[0,0,0,1],"name":"3D Text - B","mesh":0},{"translation":[-107.4104499092077,6.687186308434198,10.710197666416347],"scale":[0.8916248411245599,0.8916248411245599,0.8916248411245599],"rotation":[0,0,0,1],"name":"3D Text - u","mesh":1},{"translation":[-82.78410267375324,6.687186308434198,10.710197666416347],"scale":[0.8916248411245599,0.8916248411245599,0.8916248411245599],"rotation":[0,0,0,1],"name":"3D Text - d","mesh":2},{"translation":[-58.19693817057477,6.687186308434198,10.710197666416347],"scale":[0.8916248411245599,0.8916248411245599,0.8916248411245599],"rotation":[0,0,0,1],"name":"3D Text - g","mesh":3},{"translation":[-36.21542536374907,6.687186308434198,10.710197666416347],"scale":[0.8916248411245599,0.8916248411245599,0.8916248411245599],"rotation":[0,0,0,1],"name":"3D Text - e","mesh":4},{"translation":[-13.704945671197619,6.687186308434198,10.710197666416347],"scale":[0.8916248411245599,0.8916248411245599,0.8916248411245599],"rotation":[0,0,0,1],"name":"3D Text - t","mesh":5},{"translation":[10.882218831980856,6.687186308434198,10.710197666416347],"scale":[0.8916248411245599,0.8916248411245599,0.8916248411245599],"rotation":[0,0,0,1],"name":"3D Text - S","mesh":6},{"translation":[32.90291437108254,6.687186308434198,10.710197666416347],"scale":[0.8916248411245599,0.8916248411245599,0.8916248411245599],"rotation":[0,0,0,1],"name":"3D Text - h","mesh":7},{"translation":[57.52926160653699,6.687186308434198,10.710197666416347],"scale":[0.8916248411245599,0.8916248411245599,0.8916248411245599],"rotation":[0,0,0,1],"name":"3D Text - o","mesh":8},{"translation":[81.76378151923163,6.687186308434198,10.710197666416347],"scale":[0.8916248411245599,0.8916248411245599,0.8916248411245599],"rotation":[0,0,0,1],"name":"3D Text - p","mesh":9},{"translation":[106.35094602241011,6.687186308434198,10.710197666416347],"scale":[0.8916248411245599,0.8916248411245599,0.8916248411245599],"rotation":[0,0,0,1],"name":"3D Text - e","mesh":10}],"materials":[{"pbrMetallicRoughness":{"baseColorFactor":[0.7518950805830509,0.0036972395789001307,0.0036972395789001307,1],"metallicFactor":0,"roughnessFactor":0.53},"name":"Little Valley","emissiveFactor":[0,0,0],"extensions":{},"alphaMode":"OPAQUE","doubleSided":false}],"meshes":[{"primitives":[{"mode":4,"attributes":{"POSITION":1,"NORMAL":2,"TEXCOORD_0":3},"material":0,"indices":0}]},{"primitives":[{"mode":4,"attributes":{"POSITION":5,"NORMAL":6,"TEXCOORD_0":7},"material":0,"indices":4}]},{"primitives":[{"mode":4,"attributes":{"POSITION":9,"NORMAL":10,"TEXCOORD_0":11},"material":0,"indices":8}]},{"primitives":[{"mode":4,"attributes":{"POSITION":13,"NORMAL":14,"TEXCOORD_0":15},"material":0,"indices":12}]},{"primitives":[{"mode":4,"attributes":{"POSITION":17,"NORMAL":18,"TEXCOORD_0":19},"material":0,"indices":16}]},{"primitives":[{"mode":4,"attributes":{"POSITION":21,"NORMAL":22,"TEXCOORD_0":23},"material":0,"indices":20}]},{"primitives":[{"mode":4,"attributes":{"POSITION":25,"NORMAL":26,"TEXCOORD_0":27},"material":0,"indices":24}]},{"primitives":[{"mode":4,"attributes":{"POSITION":29,"NORMAL":30,"TEXCOORD_0":31},"material":0,"indices":28}]},{"primitives":[{"mode":4,"attributes":{"POSITION":33,"NORMAL":34,"TEXCOORD_0":35},"material":0,"indices":32}]},{"primitives":[{"mode":4,"attributes":{"POSITION":37,"NORMAL":38,"TEXCOORD_0":39},"material":0,"indices":36}]},{"primitives":[{"mode":4,"attributes":{"POSITION":17,"NORMAL":18,"TEXCOORD_0":19},"material":0,"indices":16}]}],"accessors":[{"bufferView":0,"byteOffset":0,"componentType":5125,"count":1032,"type":"SCALAR"},{"bufferView":1,"byteOffset":0,"componentType":5126,"count":682,"max":[29.638999938964844,2.1855658677570914e-15,35.69300079345703],"min":[4.9070000648498535,-15,0],"type":"VEC3"},{"bufferView":2,"byteOffset":0,"componentType":5126,"count":682,"type":"VEC3"},{"bufferView":3,"byteOffset":0,"componentType":5126,"count":682,"type":"VEC2"},{"bufferView":4,"byteOffset":0,"componentType":5125,"count":576,"type":"SCALAR"},{"bufferView":5,"byteOffset":0,"componentType":5126,"count":388,"max":[26.392000198364258,1.6384548992686853e-15,26.757999420166016],"min":[4.004000186920166,-15,-0.4880000054836273],"type":"VEC3"},{"bufferView":6,"byteOffset":0,"componentType":5126,"count":388,"type":"VEC3"},{"bufferView":7,"byteOffset":0,"componentType":5126,"count":388,"type":"VEC2"},{"bufferView":8,"byteOffset":0,"componentType":5125,"count":960,"type":"SCALAR"},{"bufferView":9,"byteOffset":0,"componentType":5126,"count":642,"max":[26.343000411987305,2.326094139420737e-15,37.987998962402344],"min":[2.808000087738037,-15,-0.4880000054836273],"type":"VEC3"},{"bufferView":10,"byteOffset":0,"componentType":5126,"count":642,"type":"VEC3"},{"bufferView":11,"byteOffset":0,"componentType":5126,"count":642,"type":"VEC2"},{"bufferView":12,"byteOffset":0,"componentType":5125,"count":2412,"type":"SCALAR"},{"bufferView":13,"byteOffset":0,"componentType":5126,"count":1604,"max":[26.195999145507812,1.6683363158236856e-15,27.246000289916992],"min":[0.9520000219345093,-15,-12.01200008392334],"type":"VEC3"},{"bufferView":14,"byteOffset":0,"componentType":5126,"count":1604,"type":"VEC3"},{"bufferView":15,"byteOffset":0,"componentType":5126,"count":1604,"type":"VEC2"},{"bufferView":16,"byteOffset":0,"componentType":5125,"count":948,"type":"SCALAR"},{"bufferView":17,"byteOffset":0,"componentType":5126,"count":630,"max":[25.43899917602539,1.6683363158236856e-15,27.246000289916992],"min":[2.808000087738037,-15,-0.4880000054836273],"type":"VEC3"},{"bufferView":18,"byteOffset":0,"componentType":5126,"count":630,"type":"VEC3"},{"bufferView":19,"byteOffset":0,"componentType":5126,"count":630,"type":"VEC2"},{"bufferView":20,"byteOffset":0,"componentType":5125,"count":552,"type":"SCALAR"},{"bufferView":21,"byteOffset":0,"componentType":5126,"count":366,"max":[16.601999282836914,2.018156581995857e-15,32.95899963378906],"min":[0.7570000290870667,-15,-0.4880000054836273],"type":"VEC3"},{"bufferView":22,"byteOffset":0,"componentType":5126,"count":366,"type":"VEC3"},{"bufferView":23,"byteOffset":0,"componentType":5126,"count":366,"type":"VEC2"},{"bufferView":24,"byteOffset":0,"componentType":5125,"count":1392,"type":"SCALAR"},{"bufferView":25,"byteOffset":0,"componentType":5126,"count":930,"max":[25.048999786376953,2.216978084606017e-15,36.20600128173828],"min":[2.5880000591278076,-15,-0.4880000054836273],"type":"VEC3"},{"bufferView":26,"byteOffset":0,"componentType":5126,"count":930,"type":"VEC3"},{"bufferView":27,"byteOffset":0,"componentType":5126,"count":930,"type":"VEC2"},{"bufferView":28,"byteOffset":0,"componentType":5125,"count":636,"type":"SCALAR"},{"bufferView":29,"byteOffset":0,"componentType":5126,"count":426,"max":[26.65999984741211,2.326094139420737e-15,37.987998962402344],"min":[4.296999931335449,-15,0],"type":"VEC3"},{"bufferView":30,"byteOffset":0,"componentType":5126,"count":426,"type":"VEC3"},{"bufferView":31,"byteOffset":0,"componentType":5126,"count":426,"type":"VEC2"},{"bufferView":32,"byteOffset":0,"componentType":5125,"count":1020,"type":"SCALAR"},{"bufferView":33,"byteOffset":0,"componentType":5126,"count":678,"max":[27.39299964904785,1.6683363158236856e-15,27.246000289916992],"min":[2.808000087738037,-15,-0.4880000054836273],"type":"VEC3"},{"bufferView":34,"byteOffset":0,"componentType":5126,"count":678,"type":"VEC3"},{"bufferView":35,"byteOffset":0,"componentType":5126,"count":678,"type":"VEC2"},{"bufferView":36,"byteOffset":0,"componentType":5125,"count":1116,"type":"SCALAR"},{"bufferView":37,"byteOffset":0,"componentType":5126,"count":744,"max":[27.856000900268555,1.6683363158236856e-15,27.246000289916992],"min":[4.296999931335449,-15,-12.01200008392334],"type":"VEC3"},{"bufferView":38,"byteOffset":0,"componentType":5126,"count":744,"type":"VEC3"},{"bufferView":39,"byteOffset":0,"componentType":5126,"count":744,"type":"VEC2"}],"bufferViews":[{"buffer":0,"byteOffset":0,"byteLength":4128,"target":34963},{"buffer":0,"byteOffset":4128,"byteLength":8184,"target":34962},{"buffer":0,"byteOffset":12312,"byteLength":8184,"target":34962},{"buffer":0,"byteOffset":20496,"byteLength":5456,"target":34962},{"buffer":0,"byteOffset":25952,"byteLength":2304,"target":34963},{"buffer":0,"byteOffset":28256,"byteLength":4656,"target":34962},{"buffer":0,"byteOffset":32912,"byteLength":4656,"target":34962},{"buffer":0,"byteOffset":37568,"byteLength":3104,"target":34962},{"buffer":0,"byteOffset":40672,"byteLength":3840,"target":34963},{"buffer":0,"byteOffset":44512,"byteLength":7704,"target":34962},{"buffer":0,"byteOffset":52216,"byteLength":7704,"target":34962},{"buffer":0,"byteOffset":59920,"byteLength":5136,"target":34962},{"buffer":0,"byteOffset":65056,"byteLength":9648,"target":34963},{"buffer":0,"byteOffset":74704,"byteLength":19248,"target":34962},{"buffer":0,"byteOffset":93952,"byteLength":19248,"target":34962},{"buffer":0,"byteOffset":113200,"byteLength":12832,"target":34962},{"buffer":0,"byteOffset":126032,"byteLength":3792,"target":34963},{"buffer":0,"byteOffset":129824,"byteLength":7560,"target":34962},{"buffer":0,"byteOffset":137384,"byteLength":7560,"target":34962},{"buffer":0,"byteOffset":144944,"byteLength":5040,"target":34962},{"buffer":0,"byteOffset":149984,"byteLength":2208,"target":34963},{"buffer":0,"byteOffset":152192,"byteLength":4392,"target":34962},{"buffer":0,"byteOffset":156584,"byteLength":4392,"target":34962},{"buffer":0,"byteOffset":160976,"byteLength":2928,"target":34962},{"buffer":0,"byteOffset":163904,"byteLength":5568,"target":34963},{"buffer":0,"byteOffset":169472,"byteLength":11160,"target":34962},{"buffer":0,"byteOffset":180632,"byteLength":11160,"target":34962},{"buffer":0,"byteOffset":191792,"byteLength":7440,"target":34962},{"buffer":0,"byteOffset":199232,"byteLength":2544,"target":34963},{"buffer":0,"byteOffset":201776,"byteLength":5112,"target":34962},{"buffer":0,"byteOffset":206888,"byteLength":5112,"target":34962},{"buffer":0,"byteOffset":212000,"byteLength":3408,"target":34962},{"buffer":0,"byteOffset":215408,"byteLength":4080,"target":34963},{"buffer":0,"byteOffset":219488,"byteLength":8136,"target":34962},{"buffer":0,"byteOffset":227624,"byteLength":8136,"target":34962},{"buffer":0,"byteOffset":235760,"byteLength":5424,"target":34962},{"buffer":0,"byteOffset":241184,"byteLength":4464,"target":34963},{"buffer":0,"byteOffset":245648,"byteLength":8928,"target":34962},{"buffer":0,"byteOffset":254576,"byteLength":8928,"target":34962},{"buffer":0,"byteOffset":263504,"byteLength":5952,"target":34962}],"scene":0,"scenes":[{"nodes":[0],"name":"Project Name"}],"extensionsUsed":["KHR_texture_transform"],"buffers":[{"byteLength":269456,"uri":"ProjectName.bin"}]}